<svg xmlns="http://www.w3.org/2000/svg" xmlns:xlink="http://www.w3.org/1999/xlink" width="269" height="73" viewBox="0 0 269 73">
  <defs>
    <clipPath id="clip-logo">
      <rect width="269" height="73"/>
    </clipPath>
  </defs>
  <g id="logo" clip-path="url(#clip-logo)">
    <rect width="269" height="73" fill="rgba(0,0,0,0)"/>
    <g id="Component_1_1" data-name="Component 1 – 1">
      <path id="Rectangle_1_copy_3" data-name="Rectangle 1 copy 3" d="M0,0H5.99V6H0Z" transform="translate(262.98 53)" fill="#ff8030"/>
      <path id="Path_2" data-name="Path 2" d="M3.892.136A4.35,4.35,0,0,1,2.148-.182a2.435,2.435,0,0,1-1.131-.965,2.994,2.994,0,0,1-.4-1.6q0-.123,0-.214t0-.208h1.41q0,.11,0,.192t0,.2a1.63,1.63,0,0,0,.474,1.3,2.051,2.051,0,0,0,1.384.413A2.62,2.62,0,0,0,5.3-1.381,1.121,1.121,0,0,0,5.79-2.4a1.223,1.223,0,0,0-.3-.841,2.507,2.507,0,0,0-.832-.588,9.765,9.765,0,0,0-1.218-.461A6.413,6.413,0,0,1,2.04-4.9a3,3,0,0,1-.991-.936A2.459,2.459,0,0,1,.682-7.213a2.26,2.26,0,0,1,.4-1.358A2.488,2.488,0,0,1,2.2-9.419,4.339,4.339,0,0,1,3.84-9.708a4.461,4.461,0,0,1,1.712.3A2.456,2.456,0,0,1,6.69-8.5,2.7,2.7,0,0,1,7.1-6.966v.455H5.679q0-.11,0-.2t0-.195a1.494,1.494,0,0,0-.458-1.222,2.092,2.092,0,0,0-1.355-.377A2.466,2.466,0,0,0,2.524-8.2a1.089,1.089,0,0,0-.471.988,1.22,1.22,0,0,0,.3.845,2.461,2.461,0,0,0,.832.578,12.831,12.831,0,0,0,1.205.468,8.105,8.105,0,0,1,1.478.643,2.7,2.7,0,0,1,.958.89,2.468,2.468,0,0,1,.338,1.345,2.383,2.383,0,0,1-.4,1.4,2.505,2.505,0,0,1-1.137.88A4.543,4.543,0,0,1,3.892.136ZM12.04.13a3.754,3.754,0,0,1-1.881-.461A3.308,3.308,0,0,1,8.886-1.6a3.7,3.7,0,0,1-.458-1.855A3.65,3.65,0,0,1,8.886-5.3a3.252,3.252,0,0,1,1.274-1.254A3.819,3.819,0,0,1,12.04-7a3.819,3.819,0,0,1,1.881.452A3.252,3.252,0,0,1,15.2-5.3a3.65,3.65,0,0,1,.458,1.842A3.7,3.7,0,0,1,15.2-1.6a3.308,3.308,0,0,1-1.274,1.27A3.754,3.754,0,0,1,12.04.13Zm0-1.209a2.2,2.2,0,0,0,1.144-.292,2.028,2.028,0,0,0,.773-.828,2.684,2.684,0,0,0,.279-1.257A2.611,2.611,0,0,0,13.957-4.7a2,2,0,0,0-.773-.812A2.241,2.241,0,0,0,12.04-5.8a2.246,2.246,0,0,0-1.14.286,1.992,1.992,0,0,0-.776.812,2.611,2.611,0,0,0-.279,1.241A2.684,2.684,0,0,0,10.124-2.2a2.021,2.021,0,0,0,.776.828A2.207,2.207,0,0,0,12.04-1.079Zm6.667-9.077V0H17.317V-10.156ZM22.983.136A3.512,3.512,0,0,1,21.615-.11,2.058,2.058,0,0,1,20.7-.819a1.88,1.88,0,0,1-.325-1.111,1.773,1.773,0,0,1,.367-1.15,2.363,2.363,0,0,1,1.014-.705,5.508,5.508,0,0,1,1.472-.328,15.718,15.718,0,0,0,1.732-.24q.5-.117.5-.383V-4.75a.88.88,0,0,0-.448-.8,2.478,2.478,0,0,0-1.28-.273,2.494,2.494,0,0,0-1.355.309,1.079,1.079,0,0,0-.478.978H20.52a2.184,2.184,0,0,1,.413-1.345,2.565,2.565,0,0,1,1.14-.841,4.5,4.5,0,0,1,1.67-.289,4.512,4.512,0,0,1,1.576.263,2.572,2.572,0,0,1,1.134.783,1.984,1.984,0,0,1,.422,1.293q0,.136,0,.27t0,.27v2.755q0,.24.019.465a2.031,2.031,0,0,0,.071.4,1.325,1.325,0,0,0,.14.331A1.1,1.1,0,0,0,27.239,0h-1.4a.951.951,0,0,1-.114-.166,1.635,1.635,0,0,1-.133-.3A1.859,1.859,0,0,1,25.5-.835a3.349,3.349,0,0,1-.029-.458l.26.182a1.85,1.85,0,0,1-.588.656,3.051,3.051,0,0,1-.942.435A4.453,4.453,0,0,1,22.983.136Zm.292-1.17a3.038,3.038,0,0,0,1.1-.192,1.778,1.778,0,0,0,.8-.585,1.59,1.59,0,0,0,.3-.991V-3.944l.331.435a5.179,5.179,0,0,1-1.017.263q-.6.1-1.238.166a3.771,3.771,0,0,0-1.319.3.771.771,0,0,0-.442.744.848.848,0,0,0,.367.75A2.011,2.011,0,0,0,23.275-1.033ZM28.59,0V-6.9H30v2.2l-.377-.169a2.7,2.7,0,0,1,.214-.806,2.43,2.43,0,0,1,.452-.686,2.013,2.013,0,0,1,.7-.478,2.458,2.458,0,0,1,.962-.175,2.828,2.828,0,0,1,.673.065,1.349,1.349,0,0,1,.315.1l-.3,1.326a1.3,1.3,0,0,0-.263-.117,1.676,1.676,0,0,0-.549-.071,1.854,1.854,0,0,0-.884.188,1.525,1.525,0,0,0-.559.5,2.09,2.09,0,0,0-.3.679A3.163,3.163,0,0,0,30-3.6V0ZM40.208.13a4.58,4.58,0,0,1-1.686-.292,2.679,2.679,0,0,1-1.176-.854,2.157,2.157,0,0,1-.432-1.355A2.157,2.157,0,0,1,37.271-3.6a4.115,4.115,0,0,1,1.023-1.02,15.7,15.7,0,0,1,1.589-1A4.561,4.561,0,0,0,41.17-6.6a1.641,1.641,0,0,0,.416-1.066,1.056,1.056,0,0,0-.159-.6.984.984,0,0,0-.416-.354,1.324,1.324,0,0,0-.556-.117,1.464,1.464,0,0,0-.562.114,1.025,1.025,0,0,0-.448.351,1,1,0,0,0-.172.6,1.91,1.91,0,0,0,.289.968,10.369,10.369,0,0,0,.783,1.124l3.366,4.191a1.3,1.3,0,0,0,.429.383.811.811,0,0,0,.318.084A1.15,1.15,0,0,0,44.7-.949.649.649,0,0,0,44.867-1v.994a1.635,1.635,0,0,1-.188.055,1.694,1.694,0,0,1-.416.042,1.528,1.528,0,0,1-.621-.146,1.722,1.722,0,0,1-.614-.491L39.455-4.958q-.325-.409-.64-.851a4.875,4.875,0,0,1-.52-.923,2.545,2.545,0,0,1-.2-1.007,1.677,1.677,0,0,1,.315-1,2.114,2.114,0,0,1,.848-.686,2.8,2.8,0,0,1,1.189-.247,2.706,2.706,0,0,1,1.179.244,1.961,1.961,0,0,1,.8.679,1.775,1.775,0,0,1,.292,1.014,2.365,2.365,0,0,1-.273,1.134,3.382,3.382,0,0,1-.776.949,7.449,7.449,0,0,1-1.212.841A9.934,9.934,0,0,0,38.8-3.671a1.613,1.613,0,0,0-.585,1.235,1.286,1.286,0,0,0,.27.806,1.8,1.8,0,0,0,.725.549,2.5,2.5,0,0,0,1.007.2,3.821,3.821,0,0,0,1.511-.26,3.049,3.049,0,0,0,1.01-.689,3.207,3.207,0,0,0,.682-1.127A4.279,4.279,0,0,0,43.646-4.4h1.163a5.09,5.09,0,0,1-.169,1.358,4.626,4.626,0,0,1-.455,1.1,4.233,4.233,0,0,1-.663.867,3.987,3.987,0,0,1-1.342.864A5.179,5.179,0,0,1,40.208.13ZM49.851,0V-9.584H53.36a3.017,3.017,0,0,1,2.092.643,2.478,2.478,0,0,1,.708,1.93,2.663,2.663,0,0,1-.289,1.287,2.374,2.374,0,0,1-.7.822,1.654,1.654,0,0,1-.763.328,1.9,1.9,0,0,1,.708.195,1.426,1.426,0,0,1,.572.52,1.727,1.727,0,0,1,.227.949v2.06a2.639,2.639,0,0,0,.049.53.768.768,0,0,0,.12.322H54.666a1.092,1.092,0,0,1-.1-.325,2.707,2.707,0,0,1-.045-.526V-2.742a1.141,1.141,0,0,0-.367-.926,1.621,1.621,0,0,0-1.069-.309H50.845l.383-.5V0Zm1.378-4.594-.383-.552h2.248a1.564,1.564,0,0,0,.819-.218,1.6,1.6,0,0,0,.582-.611,1.868,1.868,0,0,0,.218-.919,1.425,1.425,0,0,0-.435-1.157,1.9,1.9,0,0,0-1.248-.364H50.813l.416-.539Zm7.044,1.637v-1.1h5.081l-.195.325v-.156a2.1,2.1,0,0,0-.227-.971,1.75,1.75,0,0,0-.679-.715,2.167,2.167,0,0,0-1.127-.27,2.363,2.363,0,0,0-1.186.289,2.005,2.005,0,0,0-.793.819,2.664,2.664,0,0,0-.283,1.27,2.855,2.855,0,0,0,.273,1.3,1.941,1.941,0,0,0,.786.835,2.442,2.442,0,0,0,1.228.292,3.3,3.3,0,0,0,.867-.1,1.905,1.905,0,0,0,.6-.27,1.312,1.312,0,0,0,.361-.367.916.916,0,0,0,.143-.393h1.4a2.045,2.045,0,0,1-.276.835,2.573,2.573,0,0,1-.669.747,3.384,3.384,0,0,1-1.053.533,4.689,4.689,0,0,1-1.426.2,3.806,3.806,0,0,1-1.891-.455,3.246,3.246,0,0,1-1.267-1.264,3.72,3.72,0,0,1-.455-1.855A3.7,3.7,0,0,1,57.954-5.3a3.263,3.263,0,0,1,1.28-1.257,3.824,3.824,0,0,1,1.878-.452,3.679,3.679,0,0,1,1.868.455A3.128,3.128,0,0,1,64.2-5.3a3.829,3.829,0,0,1,.429,1.839q0,.123-.007.286a1.494,1.494,0,0,1-.019.221ZM71.106,0V-4.022a2.376,2.376,0,0,0-.156-.893,1.229,1.229,0,0,0-.513-.6,1.824,1.824,0,0,0-.955-.218,1.79,1.79,0,0,0-.952.26,1.9,1.9,0,0,0-.676.705,2.026,2.026,0,0,0-.25,1.01l-.6-.3a2.885,2.885,0,0,1,.4-1.5,2.955,2.955,0,0,1,1.062-1.056,2.836,2.836,0,0,1,1.459-.39,2.9,2.9,0,0,1,1.4.315,2.141,2.141,0,0,1,.89.9,2.922,2.922,0,0,1,.309,1.387V0ZM66.193,0V-6.9H67.6V0Zm8.6-2.957v-1.1h5.081l-.195.325v-.156a2.1,2.1,0,0,0-.227-.971,1.75,1.75,0,0,0-.679-.715,2.167,2.167,0,0,0-1.127-.27,2.363,2.363,0,0,0-1.186.289,2.005,2.005,0,0,0-.793.819,2.664,2.664,0,0,0-.283,1.27,2.855,2.855,0,0,0,.273,1.3,1.941,1.941,0,0,0,.786.835,2.442,2.442,0,0,0,1.228.292,3.3,3.3,0,0,0,.867-.1,1.905,1.905,0,0,0,.6-.27,1.312,1.312,0,0,0,.361-.367.916.916,0,0,0,.143-.393h1.4a2.045,2.045,0,0,1-.276.835,2.573,2.573,0,0,1-.669.747,3.384,3.384,0,0,1-1.053.533,4.689,4.689,0,0,1-1.426.2,3.806,3.806,0,0,1-1.891-.455,3.246,3.246,0,0,1-1.267-1.264,3.72,3.72,0,0,1-.455-1.855A3.7,3.7,0,0,1,74.478-5.3a3.263,3.263,0,0,1,1.28-1.257,3.824,3.824,0,0,1,1.878-.452,3.679,3.679,0,0,1,1.868.455A3.128,3.128,0,0,1,80.722-5.3a3.829,3.829,0,0,1,.429,1.839q0,.123-.007.286a1.494,1.494,0,0,1-.019.221ZM88.1,0,86.336-6.9H87.48l1.7,6.387h-.24L90.04-6.9H91.5L90.047,0ZM83.393,0,81.931-6.9h1.462L84.511-.513h-.247L85.947-6.9H87.09L85.349,0ZM95.031.136A3.512,3.512,0,0,1,93.663-.11a2.058,2.058,0,0,1-.913-.708,1.88,1.88,0,0,1-.325-1.111,1.773,1.773,0,0,1,.367-1.15,2.363,2.363,0,0,1,1.014-.705,5.508,5.508,0,0,1,1.472-.328,15.719,15.719,0,0,0,1.732-.24q.5-.117.5-.383V-4.75a.88.88,0,0,0-.448-.8,2.478,2.478,0,0,0-1.28-.273,2.494,2.494,0,0,0-1.355.309,1.079,1.079,0,0,0-.478.978H92.568a2.184,2.184,0,0,1,.413-1.345,2.565,2.565,0,0,1,1.14-.841,4.5,4.5,0,0,1,1.67-.289,4.512,4.512,0,0,1,1.576.263,2.572,2.572,0,0,1,1.134.783,1.984,1.984,0,0,1,.422,1.293v3.294q0,.24.019.465a2.031,2.031,0,0,0,.071.4,1.325,1.325,0,0,0,.14.331A1.1,1.1,0,0,0,99.287,0h-1.4a.951.951,0,0,1-.114-.166,1.635,1.635,0,0,1-.133-.3,1.859,1.859,0,0,1-.088-.374,3.349,3.349,0,0,1-.029-.458l.26.182a1.85,1.85,0,0,1-.588.656,3.051,3.051,0,0,1-.942.435A4.453,4.453,0,0,1,95.031.136Zm.292-1.17a3.038,3.038,0,0,0,1.1-.192,1.778,1.778,0,0,0,.8-.585,1.59,1.59,0,0,0,.3-.991V-3.944l.331.435a5.179,5.179,0,0,1-1.017.263q-.6.1-1.238.166a3.771,3.771,0,0,0-1.319.3.771.771,0,0,0-.442.744.848.848,0,0,0,.367.75A2.011,2.011,0,0,0,95.323-1.033ZM104.27.136a2.891,2.891,0,0,1-1.494-.406,3.156,3.156,0,0,1-1.114-1.114,3.055,3.055,0,0,1-.426-1.6v-.078l.819-.019v.065a1.723,1.723,0,0,0,.276.958,2.016,2.016,0,0,0,.718.673,1.914,1.914,0,0,0,.949.247,1.9,1.9,0,0,0,1.4-.569,2.386,2.386,0,0,0,.569-1.751,2.38,2.38,0,0,0-.565-1.751,1.911,1.911,0,0,0-1.4-.562,1.934,1.934,0,0,0-.949.244,2.009,2.009,0,0,0-.718.663,1.7,1.7,0,0,0-.276.958l-.819-.032a2.983,2.983,0,0,1,.426-1.6,3.065,3.065,0,0,1,1.114-1.082,2.983,2.983,0,0,1,1.494-.39,3.053,3.053,0,0,1,1.553.413,3.066,3.066,0,0,1,1.153,1.205,3.935,3.935,0,0,1,.439,1.93,4.146,4.146,0,0,1-.429,1.969,2.981,2.981,0,0,1-1.144,1.218A3.089,3.089,0,0,1,104.27.136ZM100.638,0V-10.156h1.417V0Zm9.825-10.156V0h-1.391V-10.156Zm2.385,7.2v-1.1h5.081l-.195.325v-.156a2.1,2.1,0,0,0-.227-.971,1.75,1.75,0,0,0-.679-.715,2.167,2.167,0,0,0-1.127-.27,2.363,2.363,0,0,0-1.186.289,2.005,2.005,0,0,0-.793.819,2.664,2.664,0,0,0-.283,1.27,2.855,2.855,0,0,0,.273,1.3,1.941,1.941,0,0,0,.786.835,2.442,2.442,0,0,0,1.228.292,3.3,3.3,0,0,0,.867-.1,1.905,1.905,0,0,0,.6-.27,1.312,1.312,0,0,0,.361-.367.916.916,0,0,0,.143-.393h1.4a2.045,2.045,0,0,1-.276.835,2.573,2.573,0,0,1-.669.747,3.384,3.384,0,0,1-1.053.533,4.689,4.689,0,0,1-1.426.2,3.806,3.806,0,0,1-1.891-.455,3.246,3.246,0,0,1-1.267-1.264,3.72,3.72,0,0,1-.455-1.855,3.7,3.7,0,0,1,.461-1.871,3.263,3.263,0,0,1,1.28-1.257,3.824,3.824,0,0,1,1.878-.452,3.679,3.679,0,0,1,1.868.455A3.128,3.128,0,0,1,118.774-5.3a3.829,3.829,0,0,1,.429,1.839q0,.123-.007.286a1.494,1.494,0,0,1-.019.221Zm11.9-5.458.637-.741v4.211l-.338-.448h3.632v1.17H125.05l.338-.448V-.429l-.637-.741H129.4V0h-5.432V-9.584H129.4v1.17ZM136.116,0V-4.022a2.376,2.376,0,0,0-.156-.893,1.228,1.228,0,0,0-.513-.6,1.824,1.824,0,0,0-.955-.218,1.79,1.79,0,0,0-.952.26,1.9,1.9,0,0,0-.676.705,2.026,2.026,0,0,0-.25,1.01l-.6-.3a2.885,2.885,0,0,1,.4-1.5,2.955,2.955,0,0,1,1.062-1.056,2.836,2.836,0,0,1,1.459-.39,2.9,2.9,0,0,1,1.4.315,2.141,2.141,0,0,1,.89.9,2.922,2.922,0,0,1,.309,1.387V0ZM131.2,0V-6.9h1.41V0Zm8.6-2.957v-1.1h5.081l-.195.325v-.156a2.1,2.1,0,0,0-.227-.971,1.75,1.75,0,0,0-.679-.715,2.167,2.167,0,0,0-1.127-.27,2.363,2.363,0,0,0-1.186.289,2.005,2.005,0,0,0-.793.819,2.664,2.664,0,0,0-.283,1.27,2.855,2.855,0,0,0,.273,1.3,1.941,1.941,0,0,0,.786.835,2.442,2.442,0,0,0,1.228.292,3.3,3.3,0,0,0,.867-.1,1.905,1.905,0,0,0,.6-.27,1.312,1.312,0,0,0,.361-.367.916.916,0,0,0,.143-.393h1.4a2.044,2.044,0,0,1-.276.835,2.573,2.573,0,0,1-.669.747,3.384,3.384,0,0,1-1.053.533,4.689,4.689,0,0,1-1.426.2,3.806,3.806,0,0,1-1.891-.455,3.246,3.246,0,0,1-1.267-1.264,3.72,3.72,0,0,1-.455-1.855,3.7,3.7,0,0,1,.461-1.871,3.263,3.263,0,0,1,1.28-1.257,3.824,3.824,0,0,1,1.878-.452,3.679,3.679,0,0,1,1.868.455A3.128,3.128,0,0,1,145.733-5.3a3.829,3.829,0,0,1,.429,1.839q0,.123-.006.286a1.492,1.492,0,0,1-.02.221ZM147.728,0V-6.9h1.41v2.2l-.377-.169a2.7,2.7,0,0,1,.214-.806,2.43,2.43,0,0,1,.452-.686,2.013,2.013,0,0,1,.7-.478,2.457,2.457,0,0,1,.962-.175,2.828,2.828,0,0,1,.673.065,1.349,1.349,0,0,1,.315.1l-.3,1.326a1.3,1.3,0,0,0-.263-.117,1.676,1.676,0,0,0-.549-.071,1.854,1.854,0,0,0-.884.188,1.525,1.525,0,0,0-.559.5,2.09,2.09,0,0,0-.3.679,3.163,3.163,0,0,0-.088.738V0Zm9.844-.552a3.914,3.914,0,0,1,1.027.218,1.533,1.533,0,0,1,.692.487,1.343,1.343,0,0,1,.25.848,1.48,1.48,0,0,1-.4,1.03,2.615,2.615,0,0,1-1.192.682,6.8,6.8,0,0,1-1.969.244,5.42,5.42,0,0,1-2.567-.487,1.476,1.476,0,0,1-.884-1.326A1.563,1.563,0,0,1,152.588.7a1.261,1.261,0,0,1,.143-.325l1.313.195a.839.839,0,0,0-.091.192.919.919,0,0,0-.045.309q0,.461.565.656a4.984,4.984,0,0,0,1.566.195,6.132,6.132,0,0,0,1.218-.1,1.766,1.766,0,0,0,.725-.289.551.551,0,0,0,.24-.442A.446.446,0,0,0,157.89.6a4.064,4.064,0,0,0-.8-.136L154.473.253a1.993,1.993,0,0,1-1.114-.409,1.092,1.092,0,0,1-.432-.884,1.192,1.192,0,0,1,.169-.617,1.933,1.933,0,0,1,.393-.481,1.088,1.088,0,0,1,.387-.24l.923.442a.766.766,0,0,0-.361.2.535.535,0,0,0-.211.419.441.441,0,0,0,.185.364,1.483,1.483,0,0,0,.725.188Zm.864-6.348h1.28l-.526,2.7a3.917,3.917,0,0,1-.523,1.361,2.716,2.716,0,0,1-1.027.958,3.339,3.339,0,0,1-1.608.351,3.964,3.964,0,0,1-1.722-.344,2.589,2.589,0,0,1-1.108-.958,2.572,2.572,0,0,1-.387-1.4,2.613,2.613,0,0,1,.4-1.43,2.748,2.748,0,0,1,1.1-.988,3.523,3.523,0,0,1,1.615-.357,3.369,3.369,0,0,1,1.361.26,2.62,2.62,0,0,1,.945.663,1.436,1.436,0,0,1,.383.838l-.4.045Zm-2.411,4.217A2.35,2.35,0,0,0,157-2.869a1.4,1.4,0,0,0,.63-.539,1.582,1.582,0,0,0,.221-.854,1.57,1.57,0,0,0-.221-.848,1.442,1.442,0,0,0-.63-.546,2.264,2.264,0,0,0-.968-.192,2.174,2.174,0,0,0-.952.2,1.561,1.561,0,0,0-.647.556,1.519,1.519,0,0,0-.234.851,1.537,1.537,0,0,0,.221.841,1.416,1.416,0,0,0,.63.533A2.35,2.35,0,0,0,156.026-2.684Zm5.354,5.621a4.076,4.076,0,0,1-.51-.029,1.214,1.214,0,0,1-.283-.055V1.7a1.07,1.07,0,0,0,.283.065,3.172,3.172,0,0,0,.413.026,1.321,1.321,0,0,0,.66-.156,1.411,1.411,0,0,0,.468-.432,2.452,2.452,0,0,0,.309-.627l.175-.52L160.516-6.9h1.469l1.774,5.848h-.182L165.3-6.9h1.449L164.278.507a6.024,6.024,0,0,1-.559,1.244,2.441,2.441,0,0,1-.884.867A2.9,2.9,0,0,1,161.38,2.937Z" transform="translate(91.785 58.405)" fill="#909090"/>
      <path id="Path_1" data-name="Path 1" d="M5.5-21.088l2.818-2.888V-13.6l-1.4-1.715h9.4v4.725h-9.4l1.4-1.7V-1.838L5.5-4.725H18.253V0H2.03V-25.813H18.253v4.725ZM35.228,0V-9.7a7.883,7.883,0,0,0-.236-1.969,2.8,2.8,0,0,0-.91-1.488,3.1,3.1,0,0,0-2.039-.569,3.59,3.59,0,0,0-1.978.516,3.151,3.151,0,0,0-1.208,1.461,5.642,5.642,0,0,0-.4,2.223L27.02-10.763a8.622,8.622,0,0,1,1.041-4.323,7.419,7.419,0,0,1,2.826-2.853A7.963,7.963,0,0,1,34.9-18.953a6.779,6.779,0,0,1,3.771.945,5.493,5.493,0,0,1,2.118,2.625,10.332,10.332,0,0,1,.674,3.868V0Zm-13,0V-18.585h6.23V0ZM47.618-7.508v-3.9H59.255l-.525.91v-.56a3.382,3.382,0,0,0-.4-1.566,3.238,3.238,0,0,0-1.278-1.3,4.477,4.477,0,0,0-2.292-.516,4.51,4.51,0,0,0-2.371.586,3.671,3.671,0,0,0-1.47,1.715,6.708,6.708,0,0,0-.5,2.721A7.532,7.532,0,0,0,50.9-6.571a3.7,3.7,0,0,0,1.479,1.8,4.763,4.763,0,0,0,2.555.621,7.539,7.539,0,0,0,1.654-.158,3.928,3.928,0,0,0,1.12-.411,2.081,2.081,0,0,0,.647-.56,1.493,1.493,0,0,0,.271-.6h6.16a5.048,5.048,0,0,1-.84,2.336,7.5,7.5,0,0,1-2.021,2.03A10.38,10.38,0,0,1,58.809-.088,15.005,15.005,0,0,1,54.67.438,11.679,11.679,0,0,1,49.158-.8a8.939,8.939,0,0,1-3.631-3.421,9.757,9.757,0,0,1-1.286-5.04,9.66,9.66,0,0,1,1.313-5.084,9.006,9.006,0,0,1,3.666-3.4,11.712,11.712,0,0,1,5.451-1.216,11.654,11.654,0,0,1,5.53,1.234,8.691,8.691,0,0,1,3.588,3.474,10.569,10.569,0,0,1,1.26,5.268q0,.472-.018.858a6.024,6.024,0,0,1-.052.612ZM68.005,0V-18.585h6.248v6.65l-1.173-.84a10.412,10.412,0,0,1,.77-2.529,6.493,6.493,0,0,1,1.356-1.96,5.763,5.763,0,0,1,1.942-1.251,6.809,6.809,0,0,1,2.511-.437A7.321,7.321,0,0,1,81.4-18.8a4.218,4.218,0,0,1,.761.245l-.927,5.513a5.323,5.323,0,0,0-.7-.271,4.247,4.247,0,0,0-1.347-.184,5.491,5.491,0,0,0-2.336.446,3.978,3.978,0,0,0-1.522,1.2,4.906,4.906,0,0,0-.822,1.68,7,7,0,0,0-.254,1.855V0ZM97.79-2.555a13.25,13.25,0,0,1,3.124.683A4.483,4.483,0,0,1,103-.411a4.2,4.2,0,0,1,.744,2.616,4.485,4.485,0,0,1-1.243,3.2,7.78,7.78,0,0,1-3.579,1.986,20.424,20.424,0,0,1-5.609.674,17.048,17.048,0,0,1-7.639-1.4q-2.739-1.4-2.739-3.728a4.065,4.065,0,0,1,.149-1.129,3.534,3.534,0,0,1,.376-.884l5.618.805a1.14,1.14,0,0,0-.149.306,1.647,1.647,0,0,0-.079.551q0,.77,1.33,1.181a11.21,11.21,0,0,0,3.272.411,12.773,12.773,0,0,0,2.371-.192,4.38,4.38,0,0,0,1.566-.56,1.027,1.027,0,0,0,.56-.84.911.911,0,0,0-.691-.91,6.679,6.679,0,0,0-1.566-.332L88.655.56A7.256,7.256,0,0,1,85.33-.578,2.937,2.937,0,0,1,84-3.15,3.131,3.131,0,0,1,84.586-5a5.857,5.857,0,0,1,1.33-1.374,4.269,4.269,0,0,1,1.234-.683l2.905,1.505a1.558,1.558,0,0,0-.674.359.912.912,0,0,0-.376.726.918.918,0,0,0,.49.761,4.3,4.3,0,0,0,1.768.464Zm1.592-16.03h5.46L102.638-11.5a12.789,12.789,0,0,1-1.724,3.588,7.6,7.6,0,0,1-2.879,2.45,10.16,10.16,0,0,1-4.55.893,13.609,13.609,0,0,1-5.04-.849,7.325,7.325,0,0,1-3.3-2.433,6.222,6.222,0,0,1-1.164-3.789A6.417,6.417,0,0,1,85.164-15.5a7.781,7.781,0,0,1,3.22-2.546,11.109,11.109,0,0,1,4.576-.91,9.839,9.839,0,0,1,3.412.577,6.917,6.917,0,0,1,2.555,1.558,3.131,3.131,0,0,1,1,2.223l-.945.333ZM93.45-9a4.456,4.456,0,0,0,1.733-.315,2.735,2.735,0,0,0,1.19-.919,2.453,2.453,0,0,0,.438-1.479,2.423,2.423,0,0,0-.437-1.461,2.735,2.735,0,0,0-1.19-.919A4.456,4.456,0,0,0,93.45-14.4a4.49,4.49,0,0,0-1.715.315,2.755,2.755,0,0,0-1.216.928,2.457,2.457,0,0,0-.446,1.488,2.39,2.39,0,0,0,.446,1.461,2.728,2.728,0,0,0,1.208.91A4.586,4.586,0,0,0,93.45-9Zm13.2,9V-18.585h6.178V0Zm3.08-21.193a4.2,4.2,0,0,1-2.459-.735,2.387,2.387,0,0,1-1.059-2.083,2.381,2.381,0,0,1,1.059-2.091,4.24,4.24,0,0,1,2.459-.726,4.229,4.229,0,0,1,2.467.726,2.387,2.387,0,0,1,1.05,2.091,2.387,2.387,0,0,1-1.05,2.091A4.229,4.229,0,0,1,109.725-21.193ZM124.268.438a13.477,13.477,0,0,1-3.229-.385A9.9,9.9,0,0,1,118.2-1.111a6.315,6.315,0,0,1-2.03-1.951,4.9,4.9,0,0,1-.761-2.73v-.245h6.2q0,.053,0,.105t0,.105a1.31,1.31,0,0,0,.761,1.26,4.646,4.646,0,0,0,2.074.385,5.875,5.875,0,0,0,1.216-.131,2.769,2.769,0,0,0,1.05-.437.923.923,0,0,0,.429-.779q0-.752-.9-1.068a20.255,20.255,0,0,0-3.036-.665,20.485,20.485,0,0,1-2.546-.578A11.392,11.392,0,0,1,118.2-8.873a5.571,5.571,0,0,1-1.838-1.645,4.158,4.158,0,0,1-.7-2.45,4.745,4.745,0,0,1,1.19-3.3,7.421,7.421,0,0,1,3.159-2,13.149,13.149,0,0,1,4.331-.683,11.548,11.548,0,0,1,4.191.753,7.841,7.841,0,0,1,3.167,2.153,4.9,4.9,0,0,1,1.216,3.325v.21h-6.125q0-.052,0-.1t0-.088a1.285,1.285,0,0,0-.376-.962,2.29,2.29,0,0,0-.945-.543,3.935,3.935,0,0,0-1.164-.175,5.9,5.9,0,0,0-1.1.114,2.834,2.834,0,0,0-1.015.385.888.888,0,0,0-.42.8.909.909,0,0,0,.49.77,4.362,4.362,0,0,0,1.347.516q.857.2,1.96.376a23.731,23.731,0,0,1,2.4.49,11.48,11.48,0,0,1,2.5.954,5.608,5.608,0,0,1,1.951,1.654,4.307,4.307,0,0,1,.761,2.625,5.083,5.083,0,0,1-.77,2.853,5.817,5.817,0,0,1-2.074,1.9A10.21,10.21,0,0,1,127.453.105,15.378,15.378,0,0,1,124.268.438ZM145.618.42A11.43,11.43,0,0,1,140.2-.814a9.2,9.2,0,0,1-3.658-3.421,9.555,9.555,0,0,1-1.321-5.04,9.543,9.543,0,0,1,1.321-5.049,9.154,9.154,0,0,1,3.658-3.4,11.5,11.5,0,0,1,5.416-1.225,11.5,11.5,0,0,1,5.416,1.225,9.155,9.155,0,0,1,3.658,3.4,9.543,9.543,0,0,1,1.321,5.049,9.555,9.555,0,0,1-1.321,5.04,9.2,9.2,0,0,1-3.658,3.421A11.431,11.431,0,0,1,145.618.42Zm0-4.813a3.794,3.794,0,0,0,2.17-.613,3.943,3.943,0,0,0,1.4-1.706,6.224,6.224,0,0,0,.49-2.564,6.209,6.209,0,0,0-.49-2.573,3.835,3.835,0,0,0-1.4-1.68,3.876,3.876,0,0,0-2.17-.595,3.887,3.887,0,0,0-2.161.595,3.814,3.814,0,0,0-1.409,1.68,6.209,6.209,0,0,0-.49,2.573,6.224,6.224,0,0,0,.49,2.564,3.921,3.921,0,0,0,1.409,1.706A3.8,3.8,0,0,0,145.618-4.393Z" transform="translate(90.167 39.375)"/>
      <g id="Shape_7" data-name="Shape 7" transform="translate(-24.02)">
        <path id="Subtraction_3" data-name="Subtraction 3" d="M37.812,54.653a33.924,33.924,0,0,1-18.453-5.427L31.1,40.258l15.84,5.875-7.982,8.5C38.577,54.647,38.19,54.653,37.812,54.653Zm4.576-.3,0,0L49.287,47,55.9,49.455a34.081,34.081,0,0,1-4.862,2.532A33.761,33.761,0,0,1,42.39,54.35Zm-24.038-5.8h0a33.954,33.954,0,0,1-8.135-8.025L18.268,35.5l11.56,4.288L18.351,48.549Zm39.867-.689h0L51,45.182l13.155-14.01,5.477,1.491c-.163.433-.334.859-.507,1.267a33.8,33.8,0,0,1-7.282,10.786,34.371,34.371,0,0,1-3.622,3.144Zm-9.564-3.547h0L33.266,38.607l15.3-11.681,13.073,3.56L48.654,44.313ZM0,44.176H0l3.851-4.485L4.94,41.1,0,44.175Zm31.99-6.042v0h0L20.733,33.959l16.3-10.172,10.133,2.759Zm38.026-6.558h0l-4.973-1.355,6.665-7.1a33.657,33.657,0,0,1-1.691,8.453Zm-7.489-2.04h0L49.715,26.047l11.046-8.434,11.006,1.832,0,.077q0,.135.008.27l-.054-.05-9.2,9.794Zm-14.21-3.869h0l-9.953-2.711L49.839,15.8,59.2,17.354,48.318,25.667Zm23.385-7.4h0l-9.687-1.612,8.175-6.243A33.98,33.98,0,0,1,71.7,18.267ZM60.458,16.4h0l-9.144-1.522L67.732,4.628A33.785,33.785,0,0,1,69.8,9.263L60.459,16.4ZM69.261.933V.473h.76l-.759.459Z" transform="translate(32.738 14.877)" fill="#52b704" stroke="rgba(0,0,0,0)" stroke-miterlimit="10" stroke-width="1"/>
      </g>
      <g id="Shape_7_copy" data-name="Shape 7 copy" transform="translate(-24.02)">
        <path id="Subtraction_2" data-name="Subtraction 2" d="M0,57.382H0l6.907-8.047.46-.317a33.977,33.977,0,0,1-.866-28.3,34.022,34.022,0,0,1,1.66-3.383h15.1V3.259c.433-.205.878-.4,1.323-.592A34.112,34.112,0,0,1,53.31,3.726a34.32,34.32,0,0,1,11.5,9.6h5.448l-.555.349h.315l-22.7,13.738h-.008v.006l-.415.251L6.3,53.462l.034.054L.262,57.33l.211-.242L0,57.382Z" transform="translate(32.738 1.671)" fill="#ff9222" stroke="rgba(0,0,0,0)" stroke-miterlimit="10" stroke-width="1"/>
        <path id="Shape_15" data-name="Shape 15" d="M53,43,76.885,26.515l-8.308-3.091L80,9,55.077,24.455l8.308,4.121" fill="#fff"/>
      </g>
      <path id="Rectangle_1" data-name="Rectangle 1" d="M0,0H9V9.01H0Z" transform="translate(2.98 10.99)" fill="#ff9222"/>
      <path id="Rectangle_1_copy_4" data-name="Rectangle 1 copy 4" d="M0,0H5.98V6H0Z" fill="#ff9222"/>
      <path id="Rectangle_1_copy_2" data-name="Rectangle 1 copy 2" d="M0,0H13.98V14.02H0Z" transform="translate(15.99 2.99)" fill="#ff9222"/>
    </g>
  </g>
</svg>
